<svg width="48" height="48" viewBox="0 0 48 48" fill="none" xmlns="http://www.w3.org/2000/svg">
<g clip-path="url(#clip0_905_2)">
<path fill-rule="evenodd" clip-rule="evenodd" d="M0 24C0 10.7496 10.7496 0 24 0C37.2504 0 48 10.7496 48 24C48 37.2504 37.2504 48 24 48C10.7496 48 0 37.2504 0 24ZM24 3.69231C12.7889 3.69231 3.69231 12.7889 3.69231 24C3.69231 35.2111 12.7889 44.3077 24 44.3077C35.2111 44.3077 44.3077 35.2111 44.3077 24C44.3077 12.7889 35.2111 3.69231 24 3.69231Z" fill="#323238"/>
<path fill-rule="evenodd" clip-rule="evenodd" d="M18.5 15C19.3284 15 20 15.8059 20 16.8V31.2C20 32.1941 19.3284 33 18.5 33C17.6716 33 17 32.1941 17 31.2V16.8C17 15.8059 17.6716 15 18.5 15Z" fill="#323238"/>
<path fill-rule="evenodd" clip-rule="evenodd" d="M29.5 15C30.3284 15 31 15.8059 31 16.8V31.2C31 32.1941 30.3284 33 29.5 33C28.6716 33 28 32.1941 28 31.2V16.8C28 15.8059 28.6716 15 29.5 15Z" fill="#323238"/>
</g>
<defs>
<clipPath id="clip0_905_2">
<rect width="48" height="48" fill="white"/>
</clipPath>
</defs>
</svg>
